<svg xmlns="http://www.w3.org/2000/svg" width="4192" height="1150" viewBox="0 0 4192 1150">
  <defs>
    <style>
      .cls-1, .cls-2 {
        fill: #fff;
      }

      .cls-1 {
        fill-rule: evenodd;
      }
    </style>
  </defs>
  <path id="L" class="cls-1" d="M261.854,120.988l82.518,1.29V468.059l340.816,250.3-61.889,57.2L261.854,507.626V120.988Z"/>
  <path id="S" class="cls-1" d="M511.986,122.278l475.767,2.15,3.868,392.66L909.1,454.727l1.289-255.895-314.6-1.29-3.869,196.114L993.77,712.342,632.755,1028.02,261,764.812l0.859-96.767L625.448,928.671,869.564,715.783,511.986,433.223V122.278Z"/>
  <path id="LinkStore" class="cls-1" d="M1362.81,794.177H1237.06l31.92-610.668h-90.93l-35.79,694.865h216.68Zm139.3,84.2,35.79-694.865h-90.93l-35.79,694.865h90.93Zm211.83-694.865h-90.93l-35.79,694.865h90.93l23.22-454.856,81.25,316.464-6.77,138.392h90.93l35.79-694.865h-90.93l-17.41,335.819Zm364.68,0h-90.93L1951.9,878.374h90.93Zm69.65,345.5,113.17-345.5h-83.19L2065.08,532.877v5.807l96.73,339.69h90.93ZM2596.13,370.29l3.86-67.744q5.805-119.037-103.5-119.037h-56.1q-109.32,0-115.11,119.037l-7.74,142.263q-0.975,27.1,3.87,44.034t16.93,27.582q12.075,10.661,40.14,26.13l83.19,49.357q16.44,10.66,23.7,17.419,7.245,6.783,6.29,26.131l-6.78,118.069q-1.95,40.646-37.72,40.646h-16.45q-40.62,0-38.69-40.646l2.9-37.744H2304l-1.94,34.84q-6.78,127.748,102.54,127.747h55.13q110.28,0,116.08-117.1l7.74-148.07q1.935-36.768-4.35-49.841a65.622,65.622,0,0,0-17.41-22.259q-11.145-9.186-39.18-25.646l-83.19-47.421q-16.455-10.638-23.7-17.42-7.26-6.759-6.29-26.13l5.81-115.166q2.9-41.6,41.59-41.614h14.51q39.66,0,36.76,41.614l-2.9,60.97h90.93Zm313.4-102.584,3.87-84.2H2648.35l-3.87,84.2h87.06l-31.92,610.668h90.93l31.92-610.668h87.06Zm210.86,610.668q110.28,0,116.08-118.069l24.19-457.759q5.79-119.037-103.51-119.037h-87.06q-109.32,0-115.11,119.037L2930.8,760.305Q2925,878.39,3035.27,878.374h85.12Zm-98.66-124.843,24.18-445.179q1.935-40.645,41.6-40.646h43.52q40.635,0,38.7,40.646l-24.19,445.179q-1.95,40.646-38.69,40.646h-46.43q-40.62,0-38.69-40.646h0Zm289.22,124.843h90.93l14.51-280.656h55.14l45.46,280.656h86.09l-49.33-289.366q56.085-24.178,60.94-115.165l8.71-171.3q5.8-119.037-98.67-119.037H3346.74ZM3433.8,267.706h59.98q40.62,0,37.72,50.324l-7.74,150.006q-2.9,50.333-43.53,50.324h-59.97Zm461.41,610.668,3.87-84.2H3763.65l12.58-231.3h119.95l3.87-84.2H3780.1l11.61-210.975h135.42l3.87-84.2H3704.65l-35.79,694.865h226.35Z"/>
  <ellipse class="cls-2" cx="2506.31" cy="974.844" rx="1317.25" ry="4.906"/>
</svg>
