<svg xmlns="http://www.w3.org/2000/svg" width="2318" height="644" viewBox="0 0 2318 644">
  <metadata><?xpacket begin="﻿" id="W5M0MpCehiHzreSzNTczkc9d"?>
<x:xmpmeta xmlns:x="adobe:ns:meta/" x:xmptk="Adobe XMP Core 5.6-c142 79.160924, 2017/07/13-01:06:39        ">
   <rdf:RDF xmlns:rdf="http://www.w3.org/1999/02/22-rdf-syntax-ns#">
      <rdf:Description rdf:about=""/>
   </rdf:RDF>
</x:xmpmeta>
                                                                                                    
                                                                                                    
                                                                                                    
                                                                                                    
                                                                                                    
                                                                                                    
                                                                                                    
                                                                                                    
                                                                                                    
                                                                                                    
                                                                                                    
                                                                                                    
                                                                                                    
                                                                                                    
                                                                                                    
                                                                                                    
                                                                                                    
                                                                                                    
                                                                                                    
                                                                                                    
                           
<?xpacket end="w"?></metadata>
<defs>
    <style>
      .cls-1 {
        fill: #fff;
        fill-rule: evenodd;
      }
    </style>
  </defs>
  <path id="_Path_" data-name="&lt;Path&gt;" class="cls-1" d="M84,182.272L165.77,323.843,84,464.977h43.124l82.889-141.353L128.247,182.272H84Z"/>
  <path id="_Path_2" data-name="&lt;Path&gt;" class="cls-1" d="M139.18,182.272l80.648,140.916L139.18,464.977h44.8l81.769-141.353L204.147,218.638l12.321-.374,58.806,104.924L195.186,464.977H239.43l80.649-141.789L260.152,219.2h11.2L330.16,323.188,247.831,464.977H293.2l82.889-141.353L293.756,182.272H139.18Z"/>
  <path id="_Compound_Path_" data-name="&lt;Compound Path&gt;" class="cls-1" d="M548.785,327.01L467.359,467.926,548.785,610,630.9,468.363ZM511.6,467.339l38.189-63.015,36.859,63.015-36.859,66.839Z"/>
  <path id="_Compound_Path_2" data-name="&lt;Compound Path&gt;" class="cls-1" d="M548.785,40.007L467.359,180.924l81.426,142.069L630.9,181.36ZM511.6,180.337l38.189-63.016,36.859,63.016-36.859,66.838Z"/>
  <path id="_Compound_Path_3" data-name="&lt;Compound Path&gt;" class="cls-1" d="M304.866,465.748l152.8-.654,84.569-140.917L456.922,181.5l-152.056.748L386.728,323.6Zm67.674-245.5h61.98L497.993,323.6,435.266,428.167H372.54l58.993-103.99Z"/>
  <path id="_Path_3" data-name="&lt;Path&gt;" class="cls-1" d="M849.449,182.272H806.325L733.838,305.885H720.8l71.618-123.613H749.292L666.4,323.624l81.768,141.353h44.245L719.535,338.793h12.676l72.994,126.184h44.244L767.681,323.406Z"/>
  <path id="_Path_4" data-name="&lt;Path&gt;" class="cls-1" d="M738.736,184.171H695.611L635.6,286.508H623.206L682.5,184.171H639.372L556.484,325.524l81.768,141.352H682.5l-54.576-94.491h11.91l54.66,94.491h44.245L656.967,325.305Z"/>
  <path id="jmdkh_team" data-name="jmdkh team" class="cls-1" d="M967.586,195.905q0-3.092-3.088-3.094H929.756c-2.063,0-3.088,1.033-3.088,3.094V422.579a1.706,1.706,0,0,1-1.93,1.934H893.857c-2.063,0-3.088.907-3.088,2.708v33.266c0,2.067,1.025,3.095,3.088,3.095h35.127q21.614,0,30.109-9.477t8.493-28.431V195.905ZM1124.3,463.582h33.97c2.06,0,3.09-1.028,3.09-3.095V195.905q0-3.092-3.09-3.094h-32.42q-2.7.388-5.79,5.415l-40.15,137.706-40.14-137.706q-1.935-5.412-5.41-5.415h-32.81q-3.09,0-3.086,3.094V460.487c0,2.067,1.026,3.095,3.086,3.095h33.97c2.06,0,3.09-1.028,3.09-3.095v-131.9l22,73.882c1.8,3.868,3.48,5.935,5.02,6.189h28.57q3.465-.381,5.01-6.189l22.01-75.042V460.487c0,2.067,1.02,3.095,3.08,3.095h0Zm150.55,0q21.615,0,30.11-9.477,8.475-9.474,8.49-28.431V230.332q0-37.515-38.99-37.521h-75.27q-3.09,0-3.09,3.094V460.487c0,2.067,1.03,3.095,3.09,3.095h75.66Zm-2.32-229.769V422.579a1.7,1.7,0,0,1-1.93,1.934h-33.58V231.879h33.58a1.707,1.707,0,0,1,1.93,1.934h0Zm182.2,88.581q-6.96-10.445-25.87-12.765l38.22-112.95q1.53-3.862-1.93-3.868h-37.83q-1.935,0-3.86,3.094l-38.22,114.5v-114.5q0-3.092-3.09-3.094h-34.74c-2.06,0-3.08,1.033-3.08,3.094V460.487c0,2.067,1.02,3.095,3.08,3.095h34.74c2.06,0,3.09-1.028,3.09-3.095V347.537h33.59a1.711,1.711,0,0,1,1.93,1.934V460.487c0,2.067,1.02,3.095,3.08,3.095h35.13c1.8,0,2.7-1.028,2.7-3.095V354.113Q1461.67,332.845,1454.73,322.394Zm153.62,138.093V195.905q0-3.092-3.08-3.094h-34.74c-2.07,0-3.09,1.033-3.09,3.094V306.534h-35.52V195.905q0-3.092-3.08-3.094h-34.75c-2.06,0-3.08,1.033-3.08,3.094V460.487c0,2.067,1.02,3.095,3.08,3.095h34.75c2.05,0,3.08-1.028,3.08-3.095V345.6h35.52V460.487c0,2.067,1.02,3.095,3.09,3.095h34.74c2.05,0,3.08-1.028,3.08-3.095h0Zm185.29-231.7V195.905c0-2.061-1.04-3.094-3.09-3.094h-99.98q-3.09,0-3.09,3.094v32.879q0,2.712,3.09,2.708h29.34v229c0,2.067,1.02,3.095,3.09,3.095h35.12c1.8,0,2.7-1.028,2.7-3.095v-229h29.73c2.05,0,3.09-.9,3.09-2.708h0Zm95.34,231.7V427.221c0-1.8-1.03-2.708-3.09-2.708h-33.97V345.6h33.97c2.06,0,3.09-1.028,3.09-3.1V309.629q0-3.092-3.09-3.1h-33.97V231.492h33.97q3.09,0,3.09-2.708V195.905q0-3.092-3.09-3.094h-71.8q-3.09,0-3.09,3.094V460.487c0,2.067,1.03,3.095,3.09,3.095h71.8c2.06,0,3.09-1.028,3.09-3.095h0Zm55.58-264.582-45.94,264.582c0,2.067,1.03,3.095,3.09,3.095H1938c2.05,0,3.09-1.028,3.09-3.095l9.65-64.6h32.04l8.87,64.6c0,2.067,1.03,3.095,3.09,3.095h36.29c2.05,0,3.09-1.028,3.09-3.095L1990.5,195.905c0-2.061-1.04-3.094-3.09-3.094h-39.76q-3.09,0-3.09,3.094h0Zm33.2,161.3h-21.23l11.19-74.655Zm199.57,106.375h33.97c2.05,0,3.08-1.028,3.08-3.095V195.905q0-3.092-3.08-3.094h-32.43q-2.7.388-5.79,5.415l-40.15,137.706-40.14-137.706q-1.935-5.412-5.41-5.415h-32.81c-2.06,0-3.08,1.033-3.08,3.094V460.487c0,2.067,1.02,3.095,3.08,3.095h33.97c2.06,0,3.09-1.028,3.09-3.095v-131.9l22,73.882c1.8,3.868,3.48,5.935,5.02,6.189h28.57q3.465-.381,5.02-6.189l22-75.042V460.487c0,2.067,1.02,3.095,3.09,3.095h0Z"/>
</svg>
