<svg xmlns:xlink="http://www.w3.org/1999/xlink" width="431.95" height="143.404" viewBox="0 0 431.95 143.404" xmlns="http://www.w3.org/2000/svg"><g id="svgGroup" stroke-linecap="round" fill-rule="evenodd" font-size="9pt" stroke="#000000" stroke-width="0.944882px" fill="none" style=""><path d="M 30.886 103.773 A 14.26 14.26 0 0 0 34.05 104.103 Q 40.335 104.103 46.619 100.769 A 41.768 41.768 0 0 0 53.55 96.078 A 45.043 45.043 0 0 0 57.25 92.66 Q 61.201 88.589 64.625 83.146 A 84.456 84.456 0 0 0 70.2 72.603 A 201.475 201.475 0 0 1 70.182 75.284 A 266.778 266.778 0 0 1 70.125 78.228 A 245.999 245.999 0 0 0 70.069 81.397 A 292.184 292.184 0 0 0 70.05 84.753 A 86.418 86.418 0 0 0 70.065 86.369 Q 70.11 88.748 70.288 90.86 A 47.744 47.744 0 0 0 70.8 94.953 A 18.116 18.116 0 0 0 70.863 95.294 Q 71.651 99.398 74.1 101.703 Q 75.913 103.409 79.167 103.902 A 19.29 19.29 0 0 0 82.05 104.103 A 24.1 24.1 0 0 0 89.175 103.04 A 26.912 26.912 0 0 0 97.2 98.928 A 46.159 46.159 0 0 0 103.696 93.105 A 59.188 59.188 0 0 0 109.875 85.128 A 89.956 89.956 0 0 0 113.397 79.242 A 105.375 105.375 0 0 0 119.55 65.778 Q 123.6 55.053 125.775 43.728 A 128.97 128.97 0 0 0 126.922 36.745 A 109.272 109.272 0 0 0 127.95 22.053 A 74.132 74.132 0 0 0 127.898 19.29 A 89.078 89.078 0 0 0 127.575 14.403 A 27.15 27.15 0 0 0 127.482 13.544 Q 127.276 11.887 126.881 10.46 A 15.112 15.112 0 0 0 125.775 7.578 A 6.446 6.446 0 0 0 125.668 7.378 Q 124.719 5.68 123.014 5.102 A 6.088 6.088 0 0 0 121.05 4.803 Q 119.656 4.803 117.931 5.398 A 18.039 18.039 0 0 0 116.1 6.153 A 19.723 19.723 0 0 0 114.893 6.776 A 16.715 16.715 0 0 0 111.225 9.528 A 9.981 9.981 0 0 0 111.033 9.726 Q 109.2 11.663 109.2 13.803 Q 109.2 15.753 110.7 18.603 Q 111.488 20.065 112.318 23.004 A 64.793 64.793 0 0 1 112.875 25.128 Q 114 29.703 114 37.053 A 80.282 80.282 0 0 1 113.964 39.475 A 71.047 71.047 0 0 1 111.675 55.578 A 72.012 72.012 0 0 1 109.7 61.885 A 58.086 58.086 0 0 1 105.375 71.178 A 43.294 43.294 0 0 1 101.542 76.763 A 31.419 31.419 0 0 1 96.3 81.903 A 21.605 21.605 0 0 1 93.002 84.001 A 15.685 15.685 0 0 1 85.8 85.803 A 9.38 9.38 0 0 1 85.674 85.802 Q 83.232 85.769 82.5 84.453 A 2.697 2.697 0 0 1 82.474 84.405 Q 81.923 83.364 81.792 80.979 A 29.666 29.666 0 0 1 81.75 79.353 Q 81.75 65.703 80.7 53.403 A 157.51 157.51 0 0 0 79.386 42.399 A 118.638 118.638 0 0 0 77.1 31.203 A 91.419 91.419 0 0 0 76.578 29.055 Q 75.77 25.902 74.814 23.164 A 50.846 50.846 0 0 0 72.675 17.928 Q 71.353 15.169 69.744 13.8 A 5.209 5.209 0 0 0 66.3 12.453 Q 64.5 12.453 61.95 13.953 Q 59.4 15.453 57.45 17.703 A 11.269 11.269 0 0 0 57.439 17.716 Q 56.716 18.553 56.262 19.412 A 6.229 6.229 0 0 0 55.5 22.353 Q 55.5 23.403 56.025 24.378 A 7.983 7.983 0 0 0 56.313 24.867 Q 56.807 25.646 57.6 26.553 A 32.826 32.826 0 0 1 60.74 30.849 A 40.387 40.387 0 0 1 63.975 37.428 A 33.859 33.859 0 0 1 66.309 49.783 A 34.666 34.666 0 0 1 66.3 50.553 Q 66.15 57.003 63.75 63.303 Q 61.35 69.603 57.375 74.778 Q 53.4 79.953 48.525 82.953 A 22.598 22.598 0 0 1 45.624 84.47 A 17.37 17.37 0 0 1 38.7 85.953 A 9.334 9.334 0 0 1 38.54 85.952 Q 36.418 85.915 35.55 84.903 Q 34.65 83.853 34.65 80.553 A 271.782 271.782 0 0 0 34.608 75.786 A 302.461 302.461 0 0 0 33.975 60.978 Q 33.3 50.853 31.5 41.103 A 116.003 116.003 0 0 0 30.244 35.156 A 97.221 97.221 0 0 0 26.55 23.103 A 60.047 60.047 0 0 0 25.224 19.495 Q 24.143 16.836 22.922 14.66 A 27.527 27.527 0 0 0 20.1 10.503 A 15.596 15.596 0 0 0 19.016 9.326 A 10.984 10.984 0 0 0 11.1 6.003 Q 6.6 6.003 3.3 8.928 Q 1.741 10.31 0.918 11.743 A 6.477 6.477 0 0 0 0 15.003 Q 0 16.353 0.75 17.403 Q 1.174 17.996 1.74 18.636 A 22.971 22.971 0 0 0 2.7 19.653 Q 9.75 26.253 13.65 35.403 A 90.811 90.811 0 0 1 16.747 43.84 A 114.728 114.728 0 0 1 19.8 55.953 A 123.156 123.156 0 0 1 20.569 59.909 A 141.051 141.051 0 0 1 22.2 72.453 Q 22.95 81.153 23.1 90.003 Q 23.307 95.675 24.683 98.83 A 8.051 8.051 0 0 0 26.175 101.178 Q 28.018 103.12 30.886 103.773 Z" id="0" vector-effect="non-scaling-stroke" style="stroke-dashoffset: 695.66px; stroke-dasharray: 695.66px; stroke-width: 1px; animation: 2.6s linear 0s infinite normal none running svg-text-anim;" stroke="#FFFFFF" fill="none"></path><path d="M 147 103.503 Q 142.5 103.503 139.95 101.028 A 7.074 7.074 0 0 1 138.347 98.556 Q 137.469 96.379 137.405 93.076 A 27.152 27.152 0 0 1 137.4 92.553 Q 137.4 89.103 138.075 85.803 Q 138.75 82.503 139.65 79.353 Q 140.7 76.053 141.375 72.603 A 36.601 36.601 0 0 0 141.997 67.411 A 42.952 42.952 0 0 0 142.05 65.253 Q 142.05 62.553 141.3 60.078 A 5.726 5.726 0 0 0 138.463 56.639 A 7.847 7.847 0 0 0 138 56.403 Q 136.05 55.353 134.625 54.228 Q 133.2 53.103 133.2 51.303 Q 133.2 49.203 135.15 46.803 A 15.127 15.127 0 0 1 138 44.129 A 19.741 19.741 0 0 1 140.325 42.678 A 14.261 14.261 0 0 1 145.396 41.048 A 13.568 13.568 0 0 1 147 40.953 A 11.385 11.385 0 0 1 149.024 41.12 Q 150.105 41.316 150.949 41.74 A 5.032 5.032 0 0 1 152.475 42.903 Q 154.2 44.853 154.8 47.853 Q 155.4 50.853 155.4 54.003 Q 155.4 58.803 154.65 63.378 Q 153.9 67.953 153.15 71.853 Q 152.55 74.703 152.25 77.103 A 39.664 39.664 0 0 0 152 79.847 A 32.072 32.072 0 0 0 151.95 81.603 A 12.44 12.44 0 0 0 152.118 83.714 Q 152.313 84.845 152.736 85.739 A 5.574 5.574 0 0 0 153.75 87.228 A 13.485 13.485 0 0 0 155.46 88.714 Q 156.891 89.773 158.85 90.753 A 2.845 2.845 0 0 1 159.633 91.373 Q 160.2 92.03 160.2 93.003 Q 160.2 93.914 159.509 95.602 A 24.666 24.666 0 0 1 159 96.753 A 10.353 10.353 0 0 1 157.255 99.317 Q 156.384 100.273 155.218 101.151 A 18.381 18.381 0 0 1 154.875 101.403 A 10.356 10.356 0 0 1 151.582 102.94 Q 149.562 103.503 147 103.503 Z M 146.85 27.453 Q 142.65 27.303 140.1 24.903 A 7.828 7.828 0 0 1 137.852 20.913 A 11.903 11.903 0 0 1 137.55 18.153 Q 137.7 13.503 140.7 10.578 Q 143.554 7.796 147.901 7.796 A 13.949 13.949 0 0 1 148.35 7.803 A 13.246 13.246 0 0 1 151.22 8.198 Q 153.179 8.705 154.606 9.85 A 8.085 8.085 0 0 1 155.175 10.353 A 7.452 7.452 0 0 1 157.258 14.176 Q 157.555 15.509 157.5 17.103 A 12.137 12.137 0 0 1 156.81 20.858 A 10.18 10.18 0 0 1 154.5 24.528 A 9.495 9.495 0 0 1 149.162 27.264 A 13.591 13.591 0 0 1 146.85 27.453 Z" id="1" vector-effect="non-scaling-stroke" style="stroke-dashoffset: 223.138px; stroke-dasharray: 223.138px; stroke-width: 1px; animation: 2.6s linear 0.1s infinite normal none running svg-text-anim;" stroke="#FFFFFF" fill="#6AF1EF"></path><path d="M 183.817 103.137 A 32.943 32.943 0 0 0 191.25 103.953 A 34.013 34.013 0 0 0 196.988 103.488 A 25.358 25.358 0 0 0 205.725 100.353 A 29.963 29.963 0 0 0 207.378 99.3 A 24.795 24.795 0 0 0 215.025 91.128 A 27.106 27.106 0 0 0 216.511 88.134 A 21.377 21.377 0 0 0 218.25 79.803 A 16.553 16.553 0 0 0 217.847 76.019 A 9.668 9.668 0 0 0 213.15 69.528 Q 208.05 66.603 199.35 65.403 A 659.709 659.709 0 0 1 197.757 65.173 A 758.669 758.669 0 0 1 192.75 64.428 Q 190.81 64.133 189.225 63.624 A 14.7 14.7 0 0 1 186.975 62.703 A 7.324 7.324 0 0 1 186.632 62.514 Q 184.65 61.353 184.65 59.553 A 2.947 2.947 0 0 1 185.23 57.79 Q 185.602 57.275 186.212 56.824 A 7.74 7.74 0 0 1 187.425 56.103 A 11.171 11.171 0 0 1 189.161 55.439 Q 190.368 55.084 191.811 54.912 A 24.558 24.558 0 0 1 194.7 54.753 Q 197.7 54.753 200.775 55.578 Q 203.85 56.403 206.4 58.503 A 11.115 11.115 0 0 0 206.879 58.955 Q 207.696 59.681 208.393 59.967 A 2.262 2.262 0 0 0 209.25 60.153 Q 210.436 60.153 212.049 59.417 A 15.959 15.959 0 0 0 213.375 58.728 Q 215.85 57.303 217.725 55.053 A 9.521 9.521 0 0 0 218.074 54.609 A 7.433 7.433 0 0 0 219.6 50.103 A 5.922 5.922 0 0 0 218.416 46.479 A 7.853 7.853 0 0 0 216.75 44.853 A 14.707 14.707 0 0 0 216.341 44.562 Q 214.881 43.561 213.055 42.817 A 24.512 24.512 0 0 0 209.55 41.703 Q 205.2 40.653 200.55 40.653 A 44.749 44.749 0 0 0 199.989 40.656 Q 191.504 40.763 185.55 44.103 A 29.096 29.096 0 0 0 181.686 46.679 A 22.189 22.189 0 0 0 176.325 52.728 A 24.619 24.619 0 0 0 175.605 54.028 A 20.339 20.339 0 0 0 173.25 63.453 A 19.712 19.712 0 0 0 173.301 64.884 Q 173.43 66.653 173.888 68.118 A 9.29 9.29 0 0 0 176.25 72.078 Q 179.25 75.003 183.9 76.203 Q 188.55 77.403 193.5 78.303 Q 200.7 79.353 203.775 80.253 Q 206.85 81.153 206.85 83.253 A 3.39 3.39 0 0 1 205.757 85.735 Q 205.223 86.262 204.428 86.712 A 11.235 11.235 0 0 1 202.8 87.453 A 23.277 23.277 0 0 1 198.159 88.623 A 31.412 31.412 0 0 1 193.5 88.953 A 33.752 33.752 0 0 1 193.174 88.951 A 30.2 30.2 0 0 1 184.65 87.678 A 52.875 52.875 0 0 1 182.745 87.061 Q 179.811 86.048 177.75 84.903 A 9.207 9.207 0 0 0 177.666 84.861 Q 176.212 84.153 174.9 84.153 A 5.408 5.408 0 0 0 173.871 84.246 A 3.705 3.705 0 0 0 171.225 86.178 Q 170.1 88.203 170.1 90.453 A 11.682 11.682 0 0 0 170.101 90.584 A 9.81 9.81 0 0 0 173.1 97.653 A 17.701 17.701 0 0 0 176.796 100.459 A 23.435 23.435 0 0 0 180.9 102.303 A 29.133 29.133 0 0 0 183.817 103.137 Z" id="2" vector-effect="non-scaling-stroke" style="stroke-dashoffset: 304.95px; stroke-dasharray: 304.95px; stroke-width: 1px; animation: 2.6s linear 0.2s infinite normal none running svg-text-anim;" stroke="#FFFFFF" fill="#6AF1EF"></path><path d="M 241.2 77.403 L 261.15 63.603 Q 264.33 61.13 265.013 59.766 A 1.515 1.515 0 0 0 265.2 59.103 A 2.294 2.294 0 0 0 263.948 57.1 Q 261.843 55.803 256.2 55.803 A 41.297 41.297 0 0 0 252.521 55.956 Q 250.716 56.118 249.198 56.451 A 16.906 16.906 0 0 0 246.6 57.228 A 18.227 18.227 0 0 0 244.661 58.12 Q 242.6 59.232 241.65 60.603 A 18.497 18.497 0 0 1 241.11 61.208 Q 240.558 61.797 240.105 62.154 A 5.4 5.4 0 0 1 240.075 62.178 A 2.282 2.282 0 0 1 239.327 62.555 Q 238.838 62.703 238.2 62.703 Q 236.47 62.703 234.694 61.238 A 11.63 11.63 0 0 1 233.625 60.228 A 8.301 8.301 0 0 1 231.601 56.349 A 12.292 12.292 0 0 1 231.3 53.553 Q 231.3 48.603 235.05 45.903 A 19.201 19.201 0 0 1 239.072 43.72 Q 241.002 42.937 243.301 42.405 A 36.294 36.294 0 0 1 244.875 42.078 A 67.631 67.631 0 0 1 253.619 41.063 A 80.073 80.073 0 0 1 257.85 40.953 A 115.311 115.311 0 0 1 263.17 41.069 Q 267.347 41.262 270.675 41.778 A 30.599 30.599 0 0 1 274.384 42.576 Q 276.257 43.11 277.789 43.859 A 15.461 15.461 0 0 1 279.3 44.703 Q 281.85 46.203 283.125 48.903 Q 284.4 51.603 284.4 54.603 Q 284.4 59.155 280.278 63.229 A 22.513 22.513 0 0 1 279.225 64.203 A 67.605 67.605 0 0 1 275.198 67.421 Q 270.905 70.611 264.9 74.253 L 248.1 84.453 A 4.611 4.611 0 0 0 247.418 84.945 Q 247.074 85.249 246.874 85.582 A 1.861 1.861 0 0 0 246.6 86.553 A 1.849 1.849 0 0 0 246.767 87.362 Q 247.191 88.245 248.7 88.353 A 39.384 39.384 0 0 0 249.903 88.453 Q 251.027 88.53 252.45 88.578 Q 254.7 88.653 257.4 88.653 A 75.683 75.683 0 0 0 264.467 88.345 Q 271.421 87.691 275.989 85.645 A 21.955 21.955 0 0 0 276.3 85.503 A 26.87 26.87 0 0 1 277.344 84.977 Q 279.08 84.153 279.9 84.153 A 2.98 2.98 0 0 1 281.406 84.583 Q 281.882 84.858 282.352 85.309 A 8.08 8.08 0 0 1 283.125 86.178 A 7.27 7.27 0 0 1 284.479 89.149 A 10.41 10.41 0 0 1 284.7 91.353 Q 284.7 96.823 280.111 99.609 A 15.698 15.698 0 0 1 276.75 101.103 Q 271.188 102.887 263.202 103.423 A 109.328 109.328 0 0 1 255.9 103.653 Q 250.82 103.653 246.722 103.372 A 95.915 95.915 0 0 1 246.45 103.353 A 80.433 80.433 0 0 1 242.976 103.033 Q 240.872 102.79 239.1 102.453 Q 236.725 102.021 235.011 101.356 A 12.512 12.512 0 0 1 233.775 100.803 Q 231.893 99.827 230.723 98.591 A 8.153 8.153 0 0 1 230.55 98.403 A 6.467 6.467 0 0 1 229.82 97.341 Q 229.388 96.565 229.05 95.553 Q 228.45 93.753 228.45 92.253 A 10.171 10.171 0 0 1 231.701 84.678 A 13.448 13.448 0 0 1 232.275 84.153 A 82.871 82.871 0 0 1 236.419 80.815 A 111.515 111.515 0 0 1 241.2 77.403 Z" id="3" vector-effect="non-scaling-stroke" style="stroke-dashoffset: 323.593px; stroke-dasharray: 323.593px; stroke-width: 1px; animation: 2.6s linear 0.3s infinite normal none running svg-text-anim;" stroke="#FFFFFF" fill="#6AF1EF"></path><path d="M 310.5 70.503 L 311.1 70.803 Q 314.1 63.453 318.75 56.628 A 48.406 48.406 0 0 1 325.994 48.18 A 42.885 42.885 0 0 1 329.475 45.303 Q 335.55 40.803 342.75 40.803 A 18.945 18.945 0 0 1 347.17 41.288 A 12.407 12.407 0 0 1 353.625 45.003 Q 357.45 49.203 357.45 55.053 A 17.6 17.6 0 0 1 352.842 66.971 A 22.654 22.654 0 0 1 352.5 67.353 A 35.117 35.117 0 0 1 345.565 73.131 A 46.3 46.3 0 0 1 339.6 76.353 A 21.646 21.646 0 0 0 341.791 80.656 A 16.694 16.694 0 0 0 345.15 84.378 A 12.799 12.799 0 0 0 350.868 86.988 A 17.878 17.878 0 0 0 354.3 87.303 Q 356.1 87.303 357.3 87.003 Q 359.25 86.553 359.25 90.753 Q 359.25 92.913 358.521 95.559 A 27.334 27.334 0 0 1 358.35 96.153 A 10.394 10.394 0 0 1 355.455 100.771 A 12.831 12.831 0 0 1 354.825 101.328 A 8.298 8.298 0 0 1 352.173 102.766 Q 350.962 103.178 349.475 103.359 A 20.866 20.866 0 0 1 346.95 103.503 Q 339.9 103.503 335.475 99.378 Q 331.05 95.253 328.575 89.178 A 77.441 77.441 0 0 1 325.106 78.604 A 70.671 70.671 0 0 1 324.75 77.103 A 11.422 11.422 0 0 1 324.595 76.225 Q 324.082 72.441 326.931 71.527 A 6.419 6.419 0 0 1 328.5 71.253 A 22.124 22.124 0 0 0 332.919 70.309 A 16.596 16.596 0 0 0 337.35 68.103 A 9.041 9.041 0 0 0 339.613 65.86 A 7.765 7.765 0 0 0 340.95 61.353 Q 340.95 57.564 338.053 56.766 A 6.609 6.609 0 0 0 336.3 56.553 Q 333.38 56.553 330.388 58.615 A 16.153 16.153 0 0 0 330.225 58.728 Q 327.15 60.903 324.525 63.903 A 43.382 43.382 0 0 0 322.144 66.865 A 32.537 32.537 0 0 0 320.25 69.753 A 81.998 81.998 0 0 0 317.241 75.459 A 71.193 71.193 0 0 0 316.35 77.403 Q 314.7 81.153 313.65 84.903 L 313.65 90.903 A 15.65 15.65 0 0 1 313.087 95.202 A 12.161 12.161 0 0 1 310.425 100.053 A 10.646 10.646 0 0 1 302.838 103.626 A 14.586 14.586 0 0 1 301.95 103.653 A 5.584 5.584 0 0 1 299.178 102.906 A 6.832 6.832 0 0 1 298.8 102.678 Q 297.355 101.738 297.581 100.172 A 3.302 3.302 0 0 1 297.6 100.053 Q 299.85 88.053 301.425 75.678 Q 303 63.303 303 50.703 Q 303 39.603 302.25 30.603 Q 301.5 21.603 297.45 13.353 A 63.714 63.714 0 0 1 296.93 12.179 Q 296.532 11.253 296.25 10.503 A 7.592 7.592 0 0 1 295.927 9.411 A 5.59 5.59 0 0 1 295.8 8.253 A 5.411 5.411 0 0 1 296.575 5.527 Q 297.064 4.677 297.863 3.841 A 13.742 13.742 0 0 1 299.1 2.703 A 12.655 12.655 0 0 1 302.129 0.834 A 10.125 10.125 0 0 1 306.15 0.003 A 6.566 6.566 0 0 1 311.825 2.948 Q 312.596 4.046 313.153 5.553 A 16.603 16.603 0 0 1 313.5 6.603 A 36.449 36.449 0 0 1 314.486 11.077 Q 315.272 15.928 315.417 22.844 A 154.866 154.866 0 0 1 315.45 26.103 Q 315.45 39.32 314.133 49.628 A 120.579 120.579 0 0 1 313.65 53.028 A 556.23 556.23 0 0 1 312.779 58.423 Q 311.513 66.003 310.5 70.503 Z" id="4" vector-effect="non-scaling-stroke" style="stroke-dashoffset: 470.731px; stroke-dasharray: 470.731px; stroke-width: 1px; animation: 2.6s linear 0.4s infinite normal none running svg-text-anim;" stroke="#FFFFFF" fill="#6AF1EF"></path><path d="M 368.997 142.629 A 19.195 19.195 0 0 0 374.55 143.403 A 24.314 24.314 0 0 0 379.754 142.844 A 26.575 26.575 0 0 0 388.05 139.428 A 42.909 42.909 0 0 0 391.965 136.702 A 48.849 48.849 0 0 0 399.75 129.003 A 96.603 96.603 0 0 0 405.002 122.098 A 122.901 122.901 0 0 0 411.375 111.828 Q 416.85 102.003 421.125 91.503 A 213.864 213.864 0 0 0 424.11 83.754 A 176.459 176.459 0 0 0 428.1 71.403 Q 430.8 61.803 431.7 54.753 Q 431.982 52.84 431.947 51.044 A 18.071 18.071 0 0 0 430.95 45.378 Q 429.907 42.405 427.414 41.5 A 7.181 7.181 0 0 0 424.95 41.103 A 10.041 10.041 0 0 0 423.418 41.227 Q 422.389 41.386 421.248 41.749 A 21.72 21.72 0 0 0 419.025 42.603 A 23.648 23.648 0 0 0 417.204 43.506 A 19.566 19.566 0 0 0 413.25 46.353 Q 412.313 47.232 411.742 48.157 A 5.623 5.623 0 0 0 410.85 51.153 Q 410.85 52.653 411.75 53.778 A 97.608 97.608 0 0 0 411.947 54.023 Q 412.568 54.794 413.438 55.845 A 328.489 328.489 0 0 0 414.15 56.703 Q 415.95 58.503 416.7 60.903 A 15.787 15.787 0 0 1 417.251 63.369 A 20.631 20.631 0 0 1 417.45 66.303 A 19.405 19.405 0 0 1 417.298 68.739 A 20.164 20.164 0 0 1 414.675 76.353 Q 411.9 81.153 407.55 84.153 A 19.361 19.361 0 0 1 406.18 85.017 A 15.44 15.44 0 0 1 398.4 87.153 Q 395.672 87.153 394.925 85.258 A 4.363 4.363 0 0 1 394.65 83.853 A 131.261 131.261 0 0 0 394.452 81.202 A 152.385 152.385 0 0 0 393.675 74.103 A 207.612 207.612 0 0 0 393.148 70.373 A 170.135 170.135 0 0 0 392.175 64.578 A 165.019 165.019 0 0 0 392.139 64.383 Q 391.334 60.093 390.6 57.453 Q 388.65 50.703 385.95 45.978 A 8.802 8.802 0 0 0 380.607 41.714 A 12.519 12.519 0 0 0 377.1 41.253 A 14.04 14.04 0 0 0 375.188 41.379 A 9.902 9.902 0 0 0 369 44.553 A 11.139 11.139 0 0 0 366.422 49.498 A 15.824 15.824 0 0 0 366 53.253 A 13.084 13.084 0 0 0 366.009 53.721 Q 366.045 54.746 366.249 55.438 A 2.994 2.994 0 0 0 366.525 56.103 Q 366.921 56.781 368.042 57.034 A 5.942 5.942 0 0 0 368.85 57.153 A 14.492 14.492 0 0 1 370.344 57.403 Q 371.828 57.738 372.75 58.353 Q 373.552 58.887 374.248 59.739 A 10.179 10.179 0 0 1 375.15 61.053 Q 376.669 63.247 377.927 65.986 A 45.467 45.467 0 0 1 379.725 70.578 Q 381.6 76.203 382.875 82.203 A 110.04 110.04 0 0 1 383.944 87.94 A 80.269 80.269 0 0 1 384.6 93.153 Q 385.063 97.134 386.383 99.543 A 7.544 7.544 0 0 0 388.35 101.928 A 12.619 12.619 0 0 0 390.431 103.252 A 9.012 9.012 0 0 0 394.5 104.253 A 11.552 11.552 0 0 0 397.379 103.872 A 15.835 15.835 0 0 0 399.9 102.978 A 17.522 17.522 0 0 0 401.261 102.294 Q 402.416 101.652 403.639 100.769 A 35.371 35.371 0 0 0 406.05 98.853 A 153.971 153.971 0 0 1 402.45 105.247 A 118.582 118.582 0 0 1 398.85 110.928 A 155.635 155.635 0 0 1 398.524 111.409 Q 395.134 116.383 392.7 119.103 Q 389.85 122.403 386.475 124.953 A 14.387 14.387 0 0 1 384.438 126.249 A 10.597 10.597 0 0 1 379.5 127.503 A 9.996 9.996 0 0 1 379.3 127.501 Q 378.341 127.482 377.527 127.277 A 5.297 5.297 0 0 1 375.225 126.078 Q 373.65 124.653 372.45 122.703 A 4.673 4.673 0 0 0 372.123 122.227 A 5.322 5.322 0 0 0 371.25 121.353 A 1.883 1.883 0 0 0 370.95 121.158 Q 370.18 120.753 368.7 120.753 A 8.226 8.226 0 0 0 364.816 121.673 A 8.949 8.949 0 0 0 362.175 123.828 A 10.673 10.673 0 0 0 360.227 127.164 A 11.987 11.987 0 0 0 359.55 131.253 A 13.647 13.647 0 0 0 359.555 131.619 Q 359.628 134.346 360.799 136.515 A 10.999 10.999 0 0 0 363.975 140.103 A 16.085 16.085 0 0 0 368.997 142.629 Z" id="5" vector-effect="non-scaling-stroke" style="stroke-dashoffset: 437.164px; stroke-dasharray: 437.164px; stroke-width: 1px; animation: 2.6s linear 0.5s infinite normal none running svg-text-anim;" stroke="#FFFFFF" fill="#6AF1EF"></path></g></svg>