<svg xmlns:xlink="http://www.w3.org/1999/xlink" xmlns="http://www.w3.org/2000/svg" style="margin:auto;background:rgba(255, 251, 243, 0.3372379032258064);display:block;" width="366" height="84" preserveAspectRatio="xMidYMid">
<style type="text/css">
  text {
    text-anchor: middle; font-size: 80px; opacity: 0;
  }
</style>
<g style="transform-origin:183px 42px;transform:scale(1)">
<g transform="translate(183,42)">
  <g transform="translate(0,0)"><g class="path" style="opacity: 1; transform-origin: -108.76px -9.11909px; animation: 1s linear -0.565714s infinite normal forwards running fade-f3437cbd-db5b-4e7a-882c-a4331ae14194;"><path d="M70-49.12L70-62.24L95.60-62.24L95.60-49.12L92.40-49.12L80.48 0L56.56 0L49.28-34.56L48.48-34.56L40.80 0L16.88 0L4.16-49.12L0.96-49.12L0.96-62.24L30.56-62.24L30.56-49.12L27.52-49.12L30.64-28.72L31.44-28.72L39.04-62.24L62.08-62.24L69.12-28.72L69.92-28.72L73.04-49.12L70-49.12" fill="#51CACC" stroke="none" stroke-width="none" transform="translate(-157.04000854492188,22.000909249441975)" style=""></path></g><g class="path" style="opacity: 1; transform-origin: -47.04px -33.5591px; animation: 1s linear -0.471429s infinite normal forwards running fade-f3437cbd-db5b-4e7a-882c-a4331ae14194;"><path d="M118.16-48.88L101.84-48.88L101.84-62.24L118.16-62.24L118.16-48.88" fill="#9DF871" stroke="none" stroke-width="none" transform="translate(-157.04000854492188,22.000909249441975)" style=""></path></g><g class="path" style="opacity: 1; transform-origin: -46.32px -0.23909px; animation: 1s linear -0.377143s infinite normal forwards running fade-f3437cbd-db5b-4e7a-882c-a4331ae14194;"><path d="M123.44 0L98 0L98-13.12L101.52-13.12L101.52-31.36L98-31.36L98-44.48L119.92-44.48L119.92-13.12L123.44-13.12L123.44 0" fill="#E0FF77" stroke="none" stroke-width="none" transform="translate(-157.04000854492188,22.000909249441975)" style=""></path></g><g class="path" style="opacity: 1; transform-origin: -11.88px -0.23909px; animation: 1s linear -0.282857s infinite normal forwards running fade-f3437cbd-db5b-4e7a-882c-a4331ae14194;"><path d="M145.12 1.12L145.12 1.12Q135.04 1.12 125.68-2.08L125.68-2.08L125.68-13.92L138.64-13.92L138.64-13.12L138.64-13.12Q138.64-9.28 143.52-9.28L143.52-9.28L143.52-9.28Q147.84-9.28 147.84-12.24L147.84-12.24L147.84-12.24Q147.84-13.84 146.60-14.64L146.60-14.64L146.60-14.64Q145.36-15.44 142.24-16L142.24-16L138.24-16.72L138.24-16.72Q125.68-18.96 125.68-30.96L125.68-30.96L125.68-30.96Q125.68-37.92 130.96-41.76L130.96-41.76L130.96-41.76Q136.24-45.60 145.20-45.60L145.20-45.60L145.20-45.60Q155.20-45.60 162.08-42.24L162.08-42.24L162.08-31.12L149.92-31.12L149.92-31.92L149.92-31.92Q149.92-33.52 148.84-34.36L148.84-34.36L148.84-34.36Q147.76-35.20 145.68-35.20L145.68-35.20L145.68-35.20Q141.68-35.20 141.68-32.64L141.68-32.64L141.68-32.64Q141.68-31.28 142.80-30.56L142.80-30.56L142.80-30.56Q143.92-29.84 146.88-29.20L146.88-29.20L151.44-28.32L151.44-28.32Q158.56-26.96 161.60-23.28L161.60-23.28L161.60-23.28Q164.64-19.60 164.64-13.84L164.64-13.84L164.64-13.84Q164.64-6.56 159.56-2.72L159.56-2.72L159.56-2.72Q154.48 1.12 145.12 1.12L145.12 1.12" fill="#DE9DD6" stroke="none" stroke-width="none" transform="translate(-157.04000854492188,22.000909249441975)" style=""></path></g><g class="path" style="opacity: 1; transform-origin: 31.44px -0.23909px; animation: 1s linear -0.188571s infinite normal forwards running fade-f3437cbd-db5b-4e7a-882c-a4331ae14194;"><path d="M210.08 0L166.88 0L166.88-11.92L186.40-31.36L179.28-31.36L179.28-28.48L167.36-28.48L167.36-44.48L209.36-44.48L209.36-33.04L190.32-13.12L198.00-13.12L198.00-17.60L210.08-17.60L210.08 0" fill="#FF708E" stroke="none" stroke-width="none" transform="translate(-157.04000854492188,22.000909249441975)" style=""></path></g><g class="path" style="opacity: 1; transform-origin: 81.44px -9.11909px; animation: 1s linear -0.0942857s infinite normal forwards running fade-f3437cbd-db5b-4e7a-882c-a4331ae14194;"><path d="M253.20-23.76L260.88-13.12L264.32-13.12L264.32 0L244.72 0L236.48-15.36L234.56-15.36L234.56 0L212.64 0L212.64-13.12L216.16-13.12L216.16-49.12L212.64-49.12L212.64-62.24L234.56-62.24L234.56-29.76L236.48-29.76L246.40-44.48L263.28-44.48L263.28-31.36L260-31.36L253.20-23.76" fill="#51CACC" stroke="none" stroke-width="none" transform="translate(-157.04000854492188,22.000909249441975)" style=""></path></g><g class="path" style="opacity: 1; transform-origin: 133.6px 8.44091px; animation: 1s linear 0s infinite normal forwards running fade-f3437cbd-db5b-4e7a-882c-a4331ae14194;"><path d="M292.80-44.48L315.04-44.48L315.04-31.36L312-31.36L301.52-3.60L301.52-3.60Q297.60 6.88 292.56 12.12L292.56 12.12L292.56 12.12Q287.52 17.36 279.28 17.36L279.28 17.36L279.28 17.36Q275.92 17.36 272.48 16.68L272.48 16.68L272.48 16.68Q269.04 16 266.24 14.80L266.24 14.80L266.24 0.32L277.28 0.32L277.28 1.12L277.28 1.12Q277.28 3.12 279.36 3.12L279.36 3.12L279.36 3.12Q281.20 3.12 282.16 1.36L282.16 1.36L269.52-31.36L266.48-31.36L266.48-44.48L290.24-44.48L290.24-31.36L287.52-31.36L291.68-18.88L295.52-31.36L292.80-31.36L292.80-44.48" fill="#9DF871" stroke="none" stroke-width="none" transform="translate(-157.04000854492188,22.000909249441975)" style=""></path></g></g>
</g>
</g>
</svg>