<?xml version="1.0" encoding="utf-8"?>
<svg xmlns="http://www.w3.org/2000/svg" style="margin: auto; background: rgb(255, 251, 243); display: block; shape-rendering: auto;" width="280" height="250" preserveAspectRatio="xMidYMid">
<style type="text/css">
  text {
    text-anchor: middle; font-size: 80px; opacity: 0;
  }
</style>
<g style="transform-origin:140px 125px;transform:scale(1)">
<g transform="translate(140,125)">
  <g transform="translate(0,0)"><g class="path" style="transform: scale(0.91); transform-origin: -71.24px -1.43543px; animation: 1s linear -0.565714s infinite normal forwards running breath-17ad61d6-5cca-4339-af74-67d1d90ad756;"><path d="M50.24-47.60L50.24-47.60L50.24-47.60Q58-47.60 63.52-50.64L63.52-50.64L64.40-49.20L64.40-49.20Q59.20-46.16 52.96-45.92L52.96-45.92L52.96-45.92Q47.92-41.12 44.44-29.92L44.44-29.92L44.44-29.92Q40.96-18.72 40.96-6.08L40.96-6.08L40.96-6.08Q40.96 1.68 43.80 4.88L43.80 4.88L43.80 4.88Q46.64 8.08 50.48 8.08L50.48 8.08L50.48 8.08Q53.04 8.08 55.44 6.92L55.44 6.92L55.44 6.92Q57.84 5.76 59.16 4.64L59.16 4.64L59.16 4.64Q60.48 3.52 62.64 1.36L62.64 1.36L62.64 1.36Q61.36-2.48 61.36-10.60L61.36-10.60L61.36-10.60Q61.36-18.72 64.16-28.12L64.16-28.12L64.16-28.12Q66.96-37.52 71.60-43.52L71.60-43.52L71.60-43.52Q76.24-49.52 81.20-49.52L81.20-49.52L81.20-49.52Q83.60-49.52 84.84-48.24L84.84-48.24L84.84-48.24Q86.08-46.96 86.08-43.60L86.08-43.60L86.08-43.60Q86.08-36.80 81.72-25.52L81.72-25.52L81.72-25.52Q77.36-14.24 70.48-4.96L70.48-4.96L70.48-4.96Q71.20 1.20 74.40 4.16L74.40 4.16L74.40 4.16Q77.60 7.12 82.56 7.12L82.56 7.12L82.56 7.12Q91.68 7.12 98.96-10.32L98.96-10.32L98.96-10.32Q104.56-23.76 104.56-37.84L104.56-37.84L104.56-37.84Q104.56-51.92 99.12-57.36L99.12-57.36L100.32-58.56L100.32-58.56Q106.32-52.56 106.32-37.60L106.32-37.60L106.32-37.60Q106.32-23.68 100.64-9.60L100.64-9.60L100.64-9.60Q91.68 12 76.24 12L76.24 12L76.24 12Q68.32 12 64.64 5.68L64.64 5.68L64.64 5.68Q63.68 4.08 63.28 3.28L63.28 3.28L63.28 3.28Q54.80 12 44.56 12L44.56 12L44.56 12Q37.92 12 34.68 7.56L34.68 7.56L34.68 7.56Q31.44 3.12 31.44-3.20L31.44-3.20L31.44-3.20Q31.44-9.52 33.08-15.80L33.08-15.80L33.08-15.80Q34.72-22.08 36.88-26.56L36.88-26.56L36.88-26.56Q39.04-31.04 42.08-35.36L42.08-35.36L42.08-35.36Q46.24-41.52 50.64-45.92L50.64-45.92L50.64-45.92Q48-45.92 43.76-46.48L43.76-46.48L43.76-46.48Q34.88-46.96 34.24-46.96L34.24-46.96L34.24-46.96Q23.04-46.96 16.64-41.32L16.64-41.32L16.64-41.32Q10.24-35.68 10.24-25.76L10.24-25.76L10.24-25.76Q10.24-21.12 12.40-17.04L12.40-17.04L12.40-17.04Q13.52-14.88 17.28-12.08L17.28-12.08L17.28-12.08Q18.08-11.44 19.84-10.72L19.84-10.72L19.84-10.72Q21.60-10 21.68-10L21.68-10L23.04-9.60L22.80-7.92L22.80-7.92Q21.28-7.92 18.40-9.52L18.40-9.52L18.40-9.52Q15.52-11.12 13.48-12.92L13.48-12.92L13.48-12.92Q11.44-14.72 9.96-18.12L9.96-18.12L9.96-18.12Q8.48-21.52 8.48-25.76L8.48-25.76L8.48-25.76Q8.48-36.32 15.44-42.52L15.44-42.52L15.44-42.52Q22.40-48.72 34.24-48.72L34.24-48.72L34.24-48.72Q39.04-48.72 43.04-48.16L43.04-48.16L43.04-48.16Q47.04-47.60 50.24-47.60zM70.24-8.96L70.24-8.96L70.24-7.76L70.24-7.76Q71.04-8.88 72.32-10.96L72.32-10.96L72.32-10.96Q77.52-19.04 80.88-28.32L80.88-28.32L80.88-28.32Q84.24-37.60 84.24-43.60L84.24-43.60L84.24-43.60Q84.24-47.76 81.20-47.76L81.20-47.76L81.20-47.76Q80-47.76 78.56-47.12L78.56-47.12L78.56-47.12Q75.92-44.64 73.44-37.28L73.44-37.28L73.44-37.28Q70.24-27.84 70.24-8.96" fill="#51cacc" stroke="none" stroke-width="none" transform="translate(-128.6400146484375,21.844571097237715)" style="fill: rgb(81, 202, 204);"></path></g><g class="path" style="transform: scale(0.91); transform-origin: -9.24001px 6.64457px; animation: 1s linear -0.471429s infinite normal forwards running breath-17ad61d6-5cca-4339-af74-67d1d90ad756;"><path d="M126.08-2.16L126.08-2.16Q123.68 0.72 120.08 0.72L120.08 0.72L120.08 0.72Q116.48 0.72 114.44-1.12L114.44-1.12L114.44-1.12Q112.40-2.96 112.40-5.92L112.40-5.92L112.40-5.92Q112.40-6.96 113.68-14.64L113.68-14.64L116.32-28.96L112.96-28.96L113.12-30.40L116.56-30.40L116.56-30.40Q122.48-30.40 125.28-30.88L125.28-30.88L126.40-31.12L120.88-0.88L120.88-0.88Q123.28-1.12 124.88-3.12L124.88-3.12L126.08-2.16" fill="#51cacc" stroke="none" stroke-width="none" transform="translate(-128.6400146484375,21.844571097237715)" style="fill: rgb(157, 248, 113);"></path></g><g class="path" style="transform: scale(0.91); transform-origin: -5.48001px -21.0754px; animation: 1s linear -0.377143s infinite normal forwards running breath-17ad61d6-5cca-4339-af74-67d1d90ad756;"><path d="M119.04-38.80L119.04-38.80L119.04-38.80Q117.36-40.48 117.36-42.88L117.36-42.88L117.36-42.88Q117.36-45.28 119.04-47L119.04-47L119.04-47Q120.72-48.72 123.12-48.72L123.12-48.72L123.12-48.72Q125.52-48.72 127.24-47L127.24-47L127.24-47Q128.96-45.28 128.96-42.88L128.96-42.88L128.96-42.88Q128.96-40.48 127.24-38.80L127.24-38.80L127.24-38.80Q125.52-37.12 123.12-37.12L123.12-37.12L123.12-37.12Q120.72-37.12 119.04-38.80" fill="#51cacc" stroke="none" stroke-width="none" transform="translate(-128.6400146484375,21.844571097237715)" style="fill: rgb(224, 255, 119);"></path></g><g class="path" style="transform: scale(0.91); transform-origin: 13.44px 4.80457px; animation: 1s linear -0.282857s infinite normal forwards running breath-17ad61d6-5cca-4339-af74-67d1d90ad756;"><path d="M138.16-1.36L138.16-1.36L138.16-1.36Q146.08-1.36 146.08-13.04L146.08-13.04L146.08-13.04Q146.08-15.92 145.24-19.84L145.24-19.84L145.24-19.84Q144.40-23.76 144.24-24.72L144.24-24.72L144.24-24.72Q139.36-19.68 133.28-18.64L133.28-18.64L133.28-20.56L133.28-20.56Q139.04-21.84 144.08-27.12L144.08-27.12L144.08-27.44L144.08-27.44Q144.08-29.36 144.64-31.20L144.64-31.20L144.64-31.20Q145.20-33.04 145.76-33.92L145.76-33.92L146.32-34.80L148.24-34.80L148.24-34.80Q148.24-31.28 149.36-28.36L149.36-28.36L149.36-28.36Q150.48-25.44 151.84-23.64L151.84-23.64L151.84-23.64Q153.20-21.84 154.32-18.92L154.32-18.92L154.32-18.92Q155.44-16 155.44-12.48L155.44-12.48L155.44-12.48Q155.44-6.80 151.16-3.04L151.16-3.04L151.16-3.04Q146.88 0.72 140.88 0.72L140.88 0.72L140.88 0.72Q134.88 0.72 131.80-2L131.80-2L131.80-2Q128.72-4.72 128.72-8.28L128.72-8.28L128.72-8.28Q128.72-11.84 130.48-13.40L130.48-13.40L130.48-13.40Q132.24-14.96 134.64-14.96L134.64-14.96L134.64-14.96Q137.04-14.96 138.60-13.40L138.60-13.40L138.60-13.40Q140.16-11.84 140.16-9.40L140.16-9.40L140.16-9.40Q140.16-6.96 138.64-5.28L138.64-5.28L138.64-5.28Q137.12-3.60 134.72-3.60L134.72-3.60L134.72-3.60Q133.68-3.60 132.56-3.92L132.56-3.92L132.56-3.92Q134.32-1.36 138.16-1.36" fill="#51cacc" stroke="none" stroke-width="none" transform="translate(-128.6400146484375,21.844571097237715)" style="fill: rgb(222, 157, 214);"></path></g><g class="path" style="transform: scale(0.91); transform-origin: 45.2px 6.64457px; animation: 1s linear -0.188571s infinite normal forwards running breath-17ad61d6-5cca-4339-af74-67d1d90ad756;"><path d="M165.92-29.60L165.92-29.60L165.92-29.60Q163.92-29.60 162.56-28.24L162.56-28.24L162.56-28.24Q161.20-26.88 161.20-25.04L161.20-25.04L161.20-25.04Q161.20-23.20 162.24-21.28L162.24-21.28L160.80-20.72L160.80-20.72Q159.52-22.32 159.52-24.96L159.52-24.96L159.52-24.96Q159.52-27.60 161.32-29.36L161.32-29.36L161.32-29.36Q163.12-31.12 165.68-31.12L165.68-31.12L165.68-31.12Q168.24-31.12 172.52-30.36L172.52-30.36L172.52-30.36Q176.80-29.60 182.12-29.64L182.12-29.64L182.12-29.64Q187.44-29.68 190-30.32L190-30.32L168.80-2.08L168.80-2.08Q173.04-0.80 178.08-0.72L178.08-0.72L178.08-0.72Q181.28-0.72 183.64-2.52L183.64-2.52L183.64-2.52Q186-4.32 186.72-6.08L186.72-6.08L187.44-7.84L188.80-7.36L188.80-7.36Q188.08-4.48 185.52-1.88L185.52-1.88L185.52-1.88Q182.96 0.72 177.88 0.72L177.88 0.72L177.88 0.72Q172.80 0.72 168.64-0.40L168.64-0.40L168.64-0.40Q164.48-1.52 162.56-1.52L162.56-1.52L162.56-1.52Q160.64-1.52 159.12 0L159.12 0L157.68 0L178.64-28.32L178.64-28.32Q174.48-28.48 171.20-29.04L171.20-29.04L171.20-29.04Q167.92-29.60 165.92-29.60" fill="#51cacc" stroke="none" stroke-width="none" transform="translate(-128.6400146484375,21.844571097237715)" style="fill: rgb(255, 112, 142);"></path></g><g class="path" style="transform: scale(0.91); transform-origin: 80.52px -3.71543px; animation: 1s linear -0.0942857s infinite normal forwards running breath-17ad61d6-5cca-4339-af74-67d1d90ad756;"><path d="M204.16-15.44L204.16-15.44L201.28 0L191.76 0L200.80-50.24L200.80-50.24Q198.40-50 196.80-48L196.80-48L195.60-48.96L195.60-48.96Q198.00-51.84 201.64-51.84L201.64-51.84L201.64-51.84Q205.28-51.84 207.28-50L207.28-50L207.28-50Q209.28-48.16 209.28-44.80L209.28-44.80L209.28-44.80Q209.28-44.16 209.12-42.72L209.12-42.72L209.12-42.72Q207.28-32.56 205.12-20.80L205.12-20.80L205.12-20.80Q207.12-25.68 210.88-28.40L210.88-28.40L210.88-28.40Q214.64-31.12 218.88-31.12L218.88-31.12L218.88-31.12Q223.12-31.12 224.84-29.44L224.84-29.44L224.84-29.44Q226.56-27.76 226.56-25.24L226.56-25.24L226.56-25.24Q226.56-22.72 225.04-21.12L225.04-21.12L225.04-21.12Q223.52-19.52 221.08-19.52L221.08-19.52L221.08-19.52Q218.64-19.52 217.32-20.92L217.32-20.92L217.32-20.92Q216.00-22.32 216.00-25.08L216.00-25.08L216.00-25.08Q216.00-27.84 217.92-29.28L217.92-29.28L217.92-29.28Q210.24-28.40 205.68-17.92L205.68-17.92L205.68-17.92Q206.80-18.08 207.60-18.08L207.60-18.08L207.60-18.08Q211.84-18.08 214.28-16.40L214.28-16.40L214.28-16.40Q216.72-14.72 217.44-12.28L217.44-12.28L217.44-12.28Q218.16-9.84 218.48-7.40L218.48-7.40L218.48-7.40Q218.80-4.96 219.52-3.28L219.52-3.28L219.52-3.28Q220.24-1.60 222.08-1.60L222.08-1.60L222.08-1.60Q223.92-1.60 224.96-3.12L224.96-3.12L226.16-2.16L226.16-2.16Q225.60-1.04 223.68-0.16L223.68-0.16L223.68-0.16Q221.76 0.72 218.76 0.72L218.76 0.72L218.76 0.72Q215.76 0.72 213.48-0.80L213.48-0.80L213.48-0.80Q211.20-2.32 210.32-4.60L210.32-4.60L210.32-4.60Q209.44-6.88 208.88-9.12L208.88-9.12L208.88-9.12Q207.36-14.88 204.16-15.44" fill="#51cacc" stroke="none" stroke-width="none" transform="translate(-128.6400146484375,21.844571097237715)" style="fill: rgb(81, 202, 204);"></path></g><g class="path" style="transform: scale(0.91); transform-origin: 119.2px 13.6446px; animation: 1s linear 0s infinite normal forwards running breath-17ad61d6-5cca-4339-af74-67d1d90ad756;"><path d="M235.20-29.52L235.20-29.52L235.20-29.52Q233.28-29.52 231.20-27.28L231.20-27.28L230-28.24L230-28.24Q230.56-29.36 232.48-30.24L232.48-30.24L232.48-30.24Q234.40-31.12 236.72-31.12L236.72-31.12L236.72-31.12Q244-31.12 244-24.56L244-24.56L244-24.56Q244-21.76 242.48-15.40L242.48-15.40L242.48-15.40Q240.96-9.04 240.96-6.80L240.96-6.80L240.96-6.80Q240.96-2.96 244.16-2.96L244.16-2.96L244.16-2.96Q246.80-2.96 249.32-6.56L249.32-6.56L249.32-6.56Q251.84-10.16 253.44-16.24L253.44-16.24L256.08-30.40L256.08-30.40Q262-30.40 264.72-30.88L264.72-30.88L265.76-31.12L260.72-2.80L260.72-2.80Q259.28 5.44 254.04 10.08L254.04 10.08L254.04 10.08Q248.80 14.72 240.48 14.72L240.48 14.72L240.48 14.72Q235.44 14.72 232.68 13L232.68 13L232.68 13Q229.92 11.28 229.92 8.52L229.92 8.52L229.92 8.52Q229.92 5.76 231.60 4.12L231.60 4.12L231.60 4.12Q233.28 2.48 236.36 2.48L236.36 2.48L236.36 2.48Q239.44 2.48 242.08 3.48L242.08 3.48L242.08 3.48Q244.72 4.48 245.92 4.64L245.92 4.64L245.76 6.08L245.76 6.08Q244.40 5.92 241.84 4.96L241.84 4.96L241.84 4.96Q239.28 4 236.76 4L236.76 4L236.76 4Q234.24 4 232.92 5.12L232.92 5.12L232.92 5.12Q231.60 6.24 231.60 8.36L231.60 8.36L231.60 8.36Q231.60 10.48 233.92 11.80L233.92 11.80L233.92 11.80Q236.24 13.12 239.68 13.12L239.68 13.12L239.68 13.12Q248 13.12 249.92 3.12L249.92 3.12L251.92-7.92L251.92-7.92Q248.56-0.56 241.76-0.56L241.76-0.56L241.76-0.56Q237.12-0.56 234.60-3.20L234.60-3.20L234.60-3.20Q232.08-5.84 232.08-10.64L232.08-10.64L232.08-10.64Q232.08-13.12 233.56-19.56L233.56-19.56L233.56-19.56Q235.04-26 235.20-29.52" fill="#51cacc" stroke="none" stroke-width="none" transform="translate(-128.6400146484375,21.844571097237715)" style="fill: rgb(157, 248, 113);"></path></g></g>
</g>
</g>
<style id="breath-17ad61d6-5cca-4339-af74-67d1d90ad756" data-anikit="">@keyframes breath-17ad61d6-5cca-4339-af74-67d1d90ad756
{
  0% {
    animation-timing-function: cubic-bezier(0.9647,0.2413,-0.0705,0.7911);
    transform: scale(0.9099999999999999);
  }
  51% {
    animation-timing-function: cubic-bezier(0.9226,0.2631,-0.0308,0.7628);
    transform: scale(1.02994);
  }
  100% {
    transform: scale(0.9099999999999999);
  }
}</style></svg>